<svg xmlns="http://www.w3.org/2000/svg" xmlns:xlink="http://www.w3.org/1999/xlink" width="1460.134" height="1458.484" viewBox="0 0 1460.134 1458.484">
  <defs>
    <clipPath id="clip-path">
      <rect width="1460.134" height="1458.484" fill="none"/>
    </clipPath>
  </defs>
  <g id="Repetição_de_grade_1" data-name="Repetição de grade 1" clip-path="url(#clip-path)">
    <g transform="translate(186.458 -34.247)">
      <path id="Caminho_7" data-name="Caminho 7" d="M-100.435,460.861H1359.106c2.213,21.529-9.771,116.07-16.206,129.562H1100.919V642.45h103.8c0,16.763.151,32.631-.247,48.484-.037,1.476-3.444,3.917-5.451,4.1-6.107.552-12.295.223-18.45.223q-86.894.005-173.786,0H996.311v51H892.37v52.292H1047.8V851.17h103.911V902.4h-51.37V955.3H944.152v51.831H892.064v52.89H735.542v51.263h50.766c0,11.2.186,21.985-.237,32.75-.052,1.343-3.2,3.4-5.138,3.709-25.814,4.122-51.553,9.262-77.54,11.595-30.757,2.759-61.741,4.287-92.614,4.116-50.208-.28-99.738-7.576-148.635-18.963a718.288,718.288,0,0,1-207.886-84.6A729.721,729.721,0,0,1-57.531,679.636a739.012,739.012,0,0,1-35.662-145.62C-96.541,510.1-98.015,485.919-100.435,460.861Z" transform="translate(-86.023 329.26)"/>
      <path id="Caminho_8" data-name="Caminho 8" d="M-100.266,713.328c1.766-20.664,2.369-40.735,5.425-60.426,4.729-30.477,10.192-60.906,17.04-90.97,10.411-45.7,26.714-89.5,46.691-131.894a729.818,729.818,0,0,1,155.067-216.1c59.4-57.249,126.83-102.816,201.6-137.457C365.728,57.871,407.23,42.39,450.413,32.64,483.967,25.066,518.005,18.8,552.166,15c32.285-3.59,65.025-4.54,97.542-4.235,45.676.43,90.837,6.735,135.53,16.558A769.8,769.8,0,0,1,906.76,65.239c10.831,4.344,21.537,9.059,32,14.219a10.128,10.128,0,0,1,4.708,7.432c.343,26.265.21,52.539.21,79.58H892.047v52.475H995.975c0,16.489.2,32.084-.3,47.654-.054,1.657-4.22,4.488-6.54,4.554-14.766.418-29.551.213-44.891.213v51.3h103.4v52.522h52.066v51.9H944.363v51.835h9.8c62.679,0,125.361.146,188.038-.18,8.072-.042,10.577,2.141,10.193,10.238-.657,13.893-.181,27.842-.181,42.6H1048.281v52.171h39.845q124.221,0,248.444-.072c4.666-.005,7.729.5,8.767,6.042,7.432,39.7,12.8,79.639,14.231,120.046.037,1.065,0,2.133,0,3.558ZM577.912,375.959c-.86-115.687-91.485-207.577-206.086-209.048C256.2,165.426,161.46,255.068,160.362,373.263c-1.071,115.344,88.1,208.653,206.491,210.049C482.837,584.679,575.793,493.825,577.912,375.959Z" transform="translate(-85.908 23.538)"/>
    </g>
  </g>
</svg>
