<svg xmlns="http://www.w3.org/2000/svg" width="262.681" height="262" viewBox="0 0 262.681 262">
  <path id="Caminho_6" data-name="Caminho 6" d="M220.949,442.447a133.71,133.71,0,0,1-15.724-.92,130.235,130.235,0,0,1-59.131-22.419,131.255,131.255,0,0,1-20.212-17.321A130.323,130.323,0,0,1,93.5,342.247,132.105,132.105,0,0,1,90.1,303.81a130.193,130.193,0,0,1,21.546-64.565A131.761,131.761,0,0,1,169.2,191.088a129.521,129.521,0,0,1,25.661-8.05A131.728,131.728,0,0,1,341.449,258.7a129.434,129.434,0,0,1,8.508,26.676,131.2,131.2,0,0,1,2.049,14.012,133.7,133.7,0,0,1,.348,19.554A130.876,130.876,0,0,1,243.3,440.585,134.474,134.474,0,0,1,220.949,442.447ZM192.787,338.3c5.563,5.555,11.923,9.528,19.8,10.86q-3.2,19.511-6.38,38.945h30.675l-7.016-38.918a34.578,34.578,0,0,0,20.464-12.146l32.576,25.55,14.69-26.822c-.172-.08-.287-.146-.409-.188q-8.277-2.847-16.554-5.69-10.691-3.678-21.381-7.357c-.387-.133-.657-.242-.554-.761.259-1.307.478-2.622.684-3.939a38.031,38.031,0,0,0-.289-14.03c-.28-1.293-.676-2.561-1.031-3.885l38.272-15.311-15.348-26.213-31.312,26.835a34.822,34.822,0,0,0-20.45-11.5l7.656-39.566H206.206q3.2,19.839,6.382,39.583a44.284,44.284,0,0,0-11.228,4.417,31.922,31.922,0,0,0-9.216,7.721L160.822,259.67,145.489,286.5c.22.091.377.162.538.221q11.571,4.248,23.144,8.493,7.048,2.584,14.1,5.158c.329.12.576.227.487.684-.252,1.308-.47,2.622-.676,3.938a39.512,39.512,0,0,0,.729,16.4c.193.73.414,1.453.628,2.2l-37.687,14.055L162.1,363.867Zm-58.883-3.82a104.233,104.233,0,0,1-.009-45.432l-11.431-3.814c.911-3.068,1.773-6.108,2.72-9.124a48.436,48.436,0,0,1,3.683-8.766l-13.437-7.676a116.9,116.9,0,0,0,1.931,107.391L130.8,359.38a89.651,89.651,0,0,1-8.3-21.721Zm.709-77.993c.2-.278.357-.49.508-.7a126.237,126.237,0,0,1,9.5-11.979c1.765-1.945,4.018-3.428,5.45-5.856l8.862,8.894c1.164-1.084,2.3-2.174,3.471-3.225a85.067,85.067,0,0,1,22.087-14.363,81.51,81.51,0,0,1,12.712-4.516c.508-.134.7-.266.535-.877-.9-3.264-1.742-6.545-2.6-9.821-.142-.54-.267-1.085-.4-1.64.261-.094.442-.163.627-.224a80.938,80.938,0,0,1,19.7-3.543c.586-.043.771-.2.768-.8-.025-4.424-.013-8.848-.014-13.271,0-.212-.019-.424-.032-.709a115.364,115.364,0,0,0-51.393,14.8,117.955,117.955,0,0,0-42.568,40.806Zm-10.885,120.8a115.041,115.041,0,0,0,50.92,42.277,118.238,118.238,0,0,0,41.114,9.476c.026-.208.05-.314.05-.42,0-4.381-.007-8.761.007-13.141,0-.461-.2-.517-.586-.557-2.046-.209-4.1-.371-6.129-.7-4.783-.772-9.553-1.628-14.387-2.461l3.82-13.394a87.076,87.076,0,0,1-40.363-22.454l-8.913,8.959a53.189,53.189,0,0,1-6.866-7.214c-2.038-2.615-3.961-5.32-5.951-8.008ZM246.468,225.171a90.245,90.245,0,0,1,37.716,22.371l10.159-9.52a15.409,15.409,0,0,0,1.022,1.48,17.535,17.535,0,0,0,1.343,1.254,61.622,61.622,0,0,1,10.172,11.98c.773,1.212,1.491,2.459,2.262,3.736l12.094-7a118.725,118.725,0,0,0-51.777-44.9,115.769,115.769,0,0,0-42.108-10.07,1.977,1.977,0,0,0-.066.3c0,4.424,0,8.848-.014,13.271,0,.469.23.518.6.551,2.006.172,4.019.295,6.011.569,2.661.367,5.327.754,7.949,1.324,2.6.566,5.157,1.368,7.773,2.078ZM227.278,429.06a120.035,120.035,0,0,0,58.308-19.4A114.913,114.913,0,0,0,318.7,376.635l-11.506-6.391a136.808,136.808,0,0,1-12.149,14.689l-10.222-9.574c-11.122,10.389-23.544,18.438-38.354,22.372,1.022,4.305,2,8.519,3.04,12.718.159.643-.057.777-.582.913A127.624,127.624,0,0,1,228,414.907c-.629.055-.74.261-.738.822.02,4.184.012,8.367.012,12.55Zm97.834-62.631A119.837,119.837,0,0,0,338.433,307.5a121.974,121.974,0,0,0-11.428-47.188l-12.036,6.338c1.322,3.1,2.709,6.071,3.868,9.131s2.1,6.236,3.154,9.418l-13.435,4.489a98.856,98.856,0,0,1,.014,44.16l13.31,3.812a135.378,135.378,0,0,1-8.3,22.368Z" transform="translate(-89.877 -180.447)" fill="#be0c0c"/>
</svg>
