<svg xmlns="http://www.w3.org/2000/svg" width="1459.851" height="702.618" viewBox="0 0 1459.851 702.618">
  <path id="Caminho_8" data-name="Caminho 8" d="M-100.266,713.328c1.766-20.664,2.369-40.735,5.425-60.426,4.729-30.477,10.192-60.906,17.04-90.97,10.411-45.7,26.714-89.5,46.691-131.894a729.818,729.818,0,0,1,155.067-216.1c59.4-57.249,126.83-102.816,201.6-137.457C365.728,57.871,407.23,42.39,450.413,32.64,483.967,25.066,518.005,18.8,552.166,15c32.285-3.59,65.025-4.54,97.542-4.235,45.676.43,90.837,6.735,135.53,16.558A769.8,769.8,0,0,1,906.76,65.239c10.831,4.344,21.537,9.059,32,14.219a10.128,10.128,0,0,1,4.708,7.432c.343,26.265.21,52.539.21,79.58H892.047v52.475H995.975c0,16.489.2,32.084-.3,47.654-.054,1.657-4.22,4.488-6.54,4.554-14.766.418-29.551.213-44.891.213v51.3h103.4v52.522h52.066v51.9H944.363v51.835h9.8c62.679,0,125.361.146,188.038-.18,8.072-.042,10.577,2.141,10.193,10.238-.657,13.893-.181,27.842-.181,42.6H1048.281v52.171h39.845q124.221,0,248.444-.072c4.666-.005,7.729.5,8.767,6.042,7.432,39.7,12.8,79.639,14.231,120.046.037,1.065,0,2.133,0,3.558ZM577.912,375.959c-.86-115.687-91.485-207.577-206.086-209.048C256.2,165.426,161.46,255.068,160.362,373.263c-1.071,115.344,88.1,208.653,206.491,210.049C482.837,584.679,575.793,493.825,577.912,375.959Z" transform="translate(100.266 -10.709)"/>
</svg>
