<svg xmlns="http://www.w3.org/2000/svg" width="1459.81" height="702.61" viewBox="0 0 1459.81 702.61">
  <path id="Caminho_7" data-name="Caminho 7" d="M-100.435,460.861H1359.106c2.213,21.529-9.771,116.07-16.206,129.562H1100.919V642.45h103.8c0,16.763.151,32.631-.247,48.484-.037,1.476-3.444,3.917-5.451,4.1-6.107.552-12.295.223-18.45.223q-86.894.005-173.786,0H996.311v51H892.37v52.292H1047.8V851.17h103.911V902.4h-51.37V955.3H944.152v51.831H892.064v52.89H735.542v51.263h50.766c0,11.2.186,21.985-.237,32.75-.052,1.343-3.2,3.4-5.138,3.709-25.814,4.122-51.553,9.262-77.54,11.595-30.757,2.759-61.741,4.287-92.614,4.116-50.208-.28-99.738-7.576-148.635-18.963a718.288,718.288,0,0,1-207.886-84.6A729.721,729.721,0,0,1-57.531,679.636a739.012,739.012,0,0,1-35.662-145.62C-96.541,510.1-98.015,485.919-100.435,460.861Z" transform="translate(100.435 -460.861)"/>
</svg>
